<?xml version="1.0" encoding="UTF-8"?>
<svg id="Layer_2" data-name="Layer 2" xmlns="http://www.w3.org/2000/svg" viewBox="0 0 131.44 19.12">
  <defs>
    <style>
      .cls-1 {
        fill: #fff;
        stroke-width: 0px;
      }
    </style>
  </defs>
  <g id="Layer_1-2" data-name="Layer 1">
    <g>
      <g>
        <polygon class="cls-1" points=".8 .8 9.56 .8 9.56 0 0 0 0 9.56 .8 9.56 .8 .8"/>
        <polygon class="cls-1" points="19.12 .8 19.12 0 11.15 0 11.15 11.15 0 11.15 0 11.95 11.15 11.95 11.15 13.54 0 13.54 0 14.34 11.15 14.34 11.15 15.93 0 15.93 0 16.73 11.15 16.73 11.15 18.32 0 18.32 0 19.12 11.95 19.12 11.95 .8 19.12 .8"/>
        <polygon class="cls-1" points="19.12 3.19 19.12 2.39 13.54 2.39 13.54 19.12 14.34 19.12 14.34 3.19 19.12 3.19"/>
        <polyline class="cls-1" points="18.32 7.17 18.32 13.14 18.32 19.12 19.12 19.12 19.12 13.14 19.12 7.17"/>
        <polygon class="cls-1" points="16.73 19.12 16.73 5.58 19.12 5.58 19.12 4.78 15.93 4.78 15.93 19.12 16.73 19.12"/>
      </g>
      <g>
        <path class="cls-1" d="m26.05,9.55c0-3.79,2.81-6.58,6.56-6.58,2.77,0,5.05,1.6,5.98,4.12h-1.04c-.86-1.91-2.72-3.19-4.98-3.19-3.14,0-5.56,2.44-5.56,5.65s2.43,5.65,5.56,5.65c2.26,0,4.12-1.28,4.98-3.19h1.04c-.93,2.52-3.21,4.12-5.98,4.12-3.76,0-6.56-2.79-6.56-6.58"/>
        <polygon class="cls-1" points="48.3 15 48.3 15.93 40.84 15.93 40.84 3.17 41.8 3.17 41.8 15 48.3 15"/>
        <polygon class="cls-1" points="50.23 3.17 51.19 3.17 51.19 9.56 51.19 15.93 50.23 15.93 50.23 9.56 50.23 3.17"/>
        <polygon class="cls-1" points="55.38 4.1 55.38 8.95 61.87 8.95 61.87 9.86 55.38 9.86 55.38 15.93 54.41 15.93 54.41 3.17 62.29 3.17 62.29 4.1 55.38 4.1"/>
        <polygon class="cls-1" points="65.27 4.1 65.27 8.95 71.76 8.95 71.76 9.86 65.27 9.86 65.27 15.93 64.31 15.93 64.31 3.17 72.18 3.17 72.18 4.1 65.27 4.1"/>
        <polygon class="cls-1" points="90.29 3.17 86.59 15.93 85.31 15.93 83.96 11.32 82.03 4.37 81.85 4.37 79.91 11.32 78.58 15.93 77.31 15.93 73.59 3.17 74.59 3.17 76.38 9.28 77.94 14.93 79.53 9.28 81.3 3.17 82.59 3.17 84.36 9.28 85.93 14.95 87.52 9.28 89.29 3.17 90.29 3.17"/>
        <path class="cls-1" d="m98.99,11.68h-6.29l-1.73,4.25h-1.04l5.27-12.76h1.29l5.27,12.76h-1.04l-1.73-4.25Zm-.38-.91l-2.77-6.73-2.75,6.73h5.52Z"/>
        <polygon class="cls-1" points="110.22 4.1 105.88 4.1 105.88 15.93 104.91 15.93 104.91 4.1 100.57 4.1 100.57 3.17 110.22 3.17 110.22 4.1"/>
        <polygon class="cls-1" points="112.86 4.1 112.86 8.88 119.35 8.88 119.35 9.81 112.86 9.81 112.86 15 119.77 15 119.77 15.93 111.9 15.93 111.9 3.17 119.77 3.17 119.77 4.1 112.86 4.1"/>
        <path class="cls-1" d="m125.82,10.83h-2.94v5.11h-.98V3.17h4.83c2.86,0,4.3,1.66,4.3,3.81s-1.37,3.7-4.01,3.83l4.41,5.12h-1.22l-4.39-5.11Zm-2.94-.88h3.77c2.35,0,3.41-1.35,3.41-2.95s-1.06-2.9-3.41-2.9h-3.77v5.85Z"/>
      </g>
    </g>
  </g>
</svg>